REM DIRINDEX 1\2,1\3,1\4,1\5
REM DIRNAME cjc044,folder01,folder02,folder03,folder04
TITLE ""
FILE "1800_139.mp3" MP3
  TRACK 01 AUDIO
    TITLE "2:cjc044_4201"
    INDEX 01 00:00:00
  TRACK 02 AUDIO
    TITLE "0:"
    INDEX 01 00:00:70
  TRACK 03 AUDIO
    TITLE "3:cjc044_4202"
    INDEX 01 00:01:52
  TRACK 04 AUDIO
    TITLE "0:"
    INDEX 01 00:02:49
  TRACK 05 AUDIO
    TITLE "4:cjc044_4203"
    INDEX 01 00:03:17
  TRACK 06 AUDIO
    TITLE "0:"
    INDEX 01 00:04:25
  TRACK 07 AUDIO
    TITLE "5:cjc044_4204"
    INDEX 01 00:05:05
  TRACK 08 AUDIO
    TITLE "0:"
    INDEX 01 00:07:41
  TRACK 09 AUDIO
    TITLE "2:cjc044_4205"
    INDEX 01 00:09:18
  TRACK 10 AUDIO
    TITLE "0:"
    INDEX 01 00:10:19
  TRACK 11 AUDIO
    TITLE "3:cjc044_4206"
    INDEX 01 00:11:05
  TRACK 12 AUDIO
    TITLE "0:"
    INDEX 01 00:12:07
  TRACK 13 AUDIO
    TITLE "4:cjc044_4207"
    INDEX 01 00:12:60
  TRACK 14 AUDIO
    TITLE "0:"
    INDEX 01 00:13:61
  TRACK 15 AUDIO
    TITLE "5:cjc044_4208"
    INDEX 01 00:14:47
  TRACK 16 AUDIO
    TITLE "0:"
    INDEX 01 00:17:59
  TRACK 17 AUDIO
    TITLE "2:cjc044_4209"
    INDEX 01 00:19:46
  TRACK 18 AUDIO
    TITLE "0:"
    INDEX 01 00:20:59
  TRACK 19 AUDIO
    TITLE "3:cjc044_4210"
    INDEX 01 00:21:41
  TRACK 20 AUDIO
    TITLE "0:"
    INDEX 01 00:22:38
  TRACK 21 AUDIO
    TITLE "4:cjc044_4211"
    INDEX 01 00:23:22
  TRACK 22 AUDIO
    TITLE "0:"
    INDEX 01 00:24:41
  TRACK 23 AUDIO
    TITLE "5:cjc044_4212"
    INDEX 01 00:25:13
  TRACK 24 AUDIO
    TITLE "0:"
    INDEX 01 00:28:41
  TRACK 25 AUDIO
    TITLE "2:cjc044_4213"
    INDEX 01 00:30:20
  TRACK 26 AUDIO
    TITLE "0:"
    INDEX 01 00:31:29
  TRACK 27 AUDIO
    TITLE "3:cjc044_4214"
    INDEX 01 00:32:17
  TRACK 28 AUDIO
    TITLE "0:"
    INDEX 01 00:33:44
  TRACK 29 AUDIO
    TITLE "4:cjc044_4215"
    INDEX 01 00:34:20
  TRACK 30 AUDIO
    TITLE "0:"
    INDEX 01 00:35:31
  TRACK 31 AUDIO
    TITLE "5:cjc044_4216"
    INDEX 01 00:36:17
  TRACK 32 AUDIO
    TITLE "0:"
    INDEX 01 00:40:01
  TRACK 33 AUDIO
    TITLE "2:cjc044_4217"
    INDEX 01 00:41:59
  TRACK 34 AUDIO
    TITLE "0:"
    INDEX 01 00:42:53
  TRACK 35 AUDIO
    TITLE "3:cjc044_4218"
    INDEX 01 00:43:35
  TRACK 36 AUDIO
    TITLE "0:"
    INDEX 01 00:44:28
  TRACK 37 AUDIO
    TITLE "4:cjc044_4219"
    INDEX 01 00:45:08
  TRACK 38 AUDIO
    TITLE "0:"
    INDEX 01 00:46:02
  TRACK 39 AUDIO
    TITLE "5:cjc044_4220"
    INDEX 01 00:46:56
  TRACK 40 AUDIO
    TITLE "0:"
    INDEX 01 00:49:49
  TRACK 41 AUDIO
    TITLE "2:cjc044_4221"
    INDEX 01 00:51:36
  TRACK 42 AUDIO
    TITLE "0:"
    INDEX 01 00:52:43
  TRACK 43 AUDIO
    TITLE "3:cjc044_4222"
    INDEX 01 00:53:29
  TRACK 44 AUDIO
    TITLE "0:"
    INDEX 01 00:55:08
  TRACK 45 AUDIO
    TITLE "4:cjc044_4223"
    INDEX 01 00:55:65
  TRACK 46 AUDIO
    TITLE "0:"
    INDEX 01 00:56:74
  TRACK 47 AUDIO
    TITLE "5:cjc044_4224"
    INDEX 01 00:57:46
  TRACK 48 AUDIO
    TITLE "0:"
    INDEX 01 01:00:10
  TRACK 49 AUDIO
    TITLE "2:cjc044_4225"
    INDEX 01 01:01:72
  TRACK 50 AUDIO
    TITLE "0:"
    INDEX 01 01:02:73
  TRACK 51 AUDIO
    TITLE "3:cjc044_4226"
    INDEX 01 01:03:59
  TRACK 52 AUDIO
    TITLE "0:"
    INDEX 01 01:05:01
  TRACK 53 AUDIO
    TITLE "4:cjc044_4227"
    INDEX 01 01:05:66
  TRACK 54 AUDIO
    TITLE "0:"
    INDEX 01 01:06:73
  TRACK 55 AUDIO
    TITLE "5:cjc044_4228"
    INDEX 01 01:07:51
  TRACK 56 AUDIO
    TITLE "0:"
    INDEX 01 01:11:25
  TRACK 57 AUDIO
    TITLE "2:cjc044_4229"
    INDEX 01 01:13:10
  TRACK 58 AUDIO
    TITLE "0:"
    INDEX 01 01:14:19
  TRACK 59 AUDIO
    TITLE "3:cjc044_4230"
    INDEX 01 01:15:05
  TRACK 60 AUDIO
    TITLE "0:"
    INDEX 01 01:16:05
  TRACK 61 AUDIO
    TITLE "4:cjc044_4231"
    INDEX 01 01:16:65
  TRACK 62 AUDIO
    TITLE "0:"
    INDEX 01 01:18:02
  TRACK 63 AUDIO
    TITLE "5:cjc044_4232"
    INDEX 01 01:18:49
  TRACK 64 AUDIO
    TITLE "0:"
    INDEX 01 01:22:19
  TRACK 65 AUDIO
    TITLE "2:cjc044_4233"
    INDEX 01 01:24:02
  TRACK 66 AUDIO
    TITLE "0:"
    INDEX 01 01:25:08
  TRACK 67 AUDIO
    TITLE "3:cjc044_4234"
    INDEX 01 01:25:66
  TRACK 68 AUDIO
    TITLE "0:"
    INDEX 01 01:27:04
  TRACK 69 AUDIO
    TITLE "4:cjc044_4235"
    INDEX 01 01:27:59
  TRACK 70 AUDIO
    TITLE "0:"
    INDEX 01 01:28:67
  TRACK 71 AUDIO
    TITLE "5:cjc044_4236"
    INDEX 01 01:29:52
  TRACK 72 AUDIO
    TITLE "0:"
    INDEX 01 01:33:25
